<!-- Created with Inkscape (http://www.inkscape.org/) -->
<svg xmlns:rdf="http://www.w3.org/1999/02/22-rdf-syntax-ns#" xmlns="http://www.w3.org/2000/svg" height="100%" width="100%" version="1.1" xmlns:cc="http://creativecommons.org/ns#" xmlns:dc="http://purl.org/dc/elements/1.1/">
 <metadata>
  <rdf:RDF>
   <cc:Work rdf:about="">
    <dc:format>image/svg+xml</dc:format>
    <dc:type rdf:resource="http://purl.org/dc/dcmitype/StillImage"/>
    <dc:title/>
   </cc:Work>
  </rdf:RDF>
 </metadata>
 <g transform="translate(0,-472.36217)">
  <g transform="translate(-35.500004,195.49999)">
   <path stroke-linejoin="miter" d="m520,282.36-10,360c-10,160-130,210-230,210v-570z" stroke="#000" stroke-linecap="butt" stroke-miterlimit="4" stroke-dasharray="none" stroke-width="5" fill="#ffd200"/>
   <path stroke-linejoin="miter" d="m340,322.36,100,0,35,110-170,0z" stroke="#000" stroke-linecap="butt" stroke-miterlimit="4" stroke-dasharray="none" stroke-width="3" fill="#dc281e"/>
   <path stroke-linejoin="miter" d="m300,402.36,15,0,0,25,15,0,0-25,15,0,0,25,15,0,0-25,20,0,0,25,15,0,0-25,20,0,0,25,15,0,0-25,20,0,0,25,15,0,0-25,15,0,0,70-180,0z" stroke="#000" stroke-linecap="butt" stroke-miterlimit="4" stroke-dasharray="none" stroke-width="3" fill="#dc281e"/>
   <path stroke-linejoin="miter" d="m310,472.36,160,0,0,220-40,0,0-95c0-20-20-35-40-35s-40,15-40,35v95h-40z" stroke="#000" stroke-linecap="butt" stroke-miterlimit="4" stroke-dasharray="none" stroke-width="3" fill="#dc281e"/>
   <rect stroke-linejoin="miter" stroke-dasharray="none" height="20" width="180" stroke="#000" stroke-linecap="round" stroke-miterlimit="4" y="692.36" x="300" stroke-width="3" fill="#dc281e"/>
   <rect stroke-linejoin="miter" stroke-dasharray="none" height="27.42" width="13.237" stroke="#000" stroke-linecap="round" stroke-miterlimit="4" y="490.36" x="337" stroke-width="3" fill="none"/>
   <rect stroke-linejoin="miter" stroke-dasharray="none" height="27.42" width="13.237" stroke="#000" stroke-linecap="round" stroke-miterlimit="4" y="490.36" x="382" stroke-width="3" fill="none"/>
   <rect stroke-linejoin="miter" stroke-dasharray="none" height="27.42" width="13.237" stroke="#000" stroke-linecap="round" stroke-miterlimit="4" y="490.36" x="428" stroke-width="3" fill="none"/>
   <path stroke-linejoin="miter" d="m340,692.36,0-100c4.3122-52.66,94.8-51.714,100,0v100" stroke="#000" stroke-linecap="butt" stroke-miterlimit="4" stroke-dasharray="none" stroke-width="3" fill="none"/>
   <path stroke-linejoin="miter" d="m310,537.36,160,0" stroke="#000" stroke-linecap="butt" stroke-miterlimit="4" stroke-dasharray="none" stroke-width="3" fill="none"/>
   <path stroke-linejoin="miter" d="m350,592.36,80,0,0,0,0,0" stroke="#000" stroke-linecap="butt" stroke-miterlimit="4" stroke-dasharray="none" stroke-width="5" fill="none"/>
   <path stroke-linejoin="round" d="m381,564.36,0,48" stroke="#000" stroke-linecap="round" stroke-miterlimit="4" stroke-dasharray="none" stroke-width="5" fill="none"/>
   <path stroke-linejoin="round" d="m399,564.36,0,48" stroke="#000" stroke-linecap="round" stroke-miterlimit="4" stroke-dasharray="none" stroke-width="5" fill="none"/>
   <path stroke-linejoin="round" d="m365,572.36,0,40" stroke="#000" stroke-linecap="round" stroke-miterlimit="4" stroke-dasharray="none" stroke-width="5" fill="none"/>
   <path stroke-linejoin="round" d="m415,571.36,0,41" stroke="#000" stroke-linecap="round" stroke-miterlimit="4" stroke-dasharray="none" stroke-width="5" fill="none"/>
   <path stroke-linejoin="miter" d="m40,282.36,10,360c10,160,130,210,230,210v-570z" stroke="#000" stroke-linecap="butt" stroke-miterlimit="4" stroke-dasharray="none" stroke-width="5" fill="none"/>
   <path d="m40,282.36,240,0,0,260-231.18-0.23638z" fill="#000"/>
   <path d="m49.692,542.36,228.65,0-0.23638,307.75c-112.33-6.94-155.51-49.05-182.24-81.08-48.403-59.45-41.778-142.76-46.166-226.67z" fill="#f4f0e8"/>
   <path stroke-linejoin="round" d="m159.61,573.74c8.8026-2.3598,16.348,0.28537,22.687,7.7313l7.6275-4.4793c3.2249-2.796,6.3501-7.1008,9.4168-9.8181-2.2103-0.63778-3.9858-4.4203-7.3063-0.6399-1.1671-2.7029-3.0298-3.9871-5.7181-1.8456,0.23155,3.449,3.3309,11.43-3.6539,8.5215-6.4898-3.117-2.7979-6.624,0.48168-9.9566,1.4372-5.1199-2.4056-6.8678-4.8383-3.6462,0.53431-9.6865-4.1517-6.1128-5.5568-1.4682-3.0928-2.8545-7.0278-0.26534-1.7682,4.3646-0.37547,3.045-0.19023,5.9084-3.5728,6.3417-4.2352-1.2852-4.8784-3.202-2.7084-6.9816,2.0473-5.0993-1.1554-8.1527-4.0346-2.7218-0.79542-5.7827-4.3153-8.1625-6.5715-5.3151,2.9943,6.6377,5.8915,13.275,5.5159,19.913z" stroke="#000" stroke-linecap="butt" stroke-miterlimit="4" stroke-dasharray="none" stroke-width="2.49348521" fill="#ffd200"/>
   <path stroke-linejoin="round" d="m94.236,564.91c4.6882,0.77789,4.7559,0.2452,5.8409,10.663-6.7629,3.526-2.6126,10.849-0.30892,17.362,14.911,16.619,26.844,39.318,42.028,47.836l-4.001,9.362c-0.34711,8.9928-4.986,9.8605-8.2716,13.29-5.1676-1.2925-11.369-2.7496-14.446-9.4272l-8.8376-21.064c-3.1475-0.23314-4.4595-6.13-6.4671-9.8805,2.9757-5.8152-0.17618-10.348-0.82429-14.165,1.1016,4.6382,1.7766,9.1722-0.88968,12.889-7.1305,6.0229-10.748,1.2398-14.232-1.0962l9.091-2.7297c-3.6308-3.0867-4.8676-6.3805-2.6665-9.9713-5.4967-5.8695-7.3899,2.4193-13.489,3.606-4.6097-1.3134-6.0662-0.17892-6.1408-4.4028-2.1386,4.9302-4.7684,3.2927-4.5153,7.5418,0.56066-2.6986-6.7393-4.1145,1.965-12.893,1.6303-7.1833,5.8604-5.6786,9.7316-4.4994,6.4057-2.2338,3.3043-10.002-0.78199-7.9006-6.86,1.4307-7.6547-3.0805-6.2845-7.6047-2.4996-2.2869-5.73,0.13802-8.8911,1.325,3.6273-6.1297,7.0902-13.259,12.902-6.0985,2.3221-3.2981,5.8612-2.7784,6.6267,0.1386,2.0958,5.2767,6.0462,11.18,10.492,12.379-1.2398-1.7831-3.6196-4.0634-3.0598-7.565,1.4374-2.5164-1.6755-4.4937-2.6414-7.3639,1.6682-3.3994,3.9508-2.232,6.3823-2.6874,1.909-3.4381,2.9455-4.7369,1.6892-7.0428z" stroke="#000" stroke-linecap="butt" stroke-miterlimit="4" stroke-dasharray="none" stroke-width="2.5" fill="#dc281e"/>
   <g stroke-linejoin="round" transform="matrix(0.57492797,0.27524293,-0.40663868,0.80165712,201.77178,437.85661)" stroke="#000" stroke-miterlimit="4" stroke-dasharray="none">
    <path d="m89.705,326.55c-2.2926-5.2232,8.9761-4.9668,12.726-3.8286,14.004-0.34223,6.8568,11.966,14.209,14.221,15.339-0.76509,25.785-6.0464,35.4-12.096,2.853-7.6059-7.6788-12.123-11.518-18.184-3.4414-6.6135-3.5059-12.767,2.8366-18.046,13.574-11.833,27.365-18.239,42.72-21.164,11.688,5.594,16.228,11.903,19.082,18.38-9.5724,7.1434-22.748,9.1175-24.756,27.114-0.20971,6.6562,6.3018,12.599,10.902,18.576-5.6472,5.8898-10.518,12.168-12.626,19.827-11.904,3.625-20.38-0.25959-32.715,3.1701-3.8187-1.4533-3.0772-5.7174-7.7472-7.3389-4.6599,2.9459-3.9828,5.056-0.62473,8.0019,0.88013,4.4328,5.0437,8.3089,0.26531,11-1.8694,4.4395-10.864,6.9074-6.8705-5.7129,1.9073,0.38197-0.0127,2.5809-4.159,1.7878-0.74138-2.4971-3.3978-5.2156-1.4854-8.5973-4.8593-0.45964-7.3536,1.2126-8.0049,10.281,0.75327,5.0875-1.2128,7.4556-4.4589,8.5438-3.1689,0.71427-3.8432-2.3133-5.3912-4.0303-1.2095,3.8944-4.7008,6.1459-0.63562,10.588-8.1593-1.9766-5.4752-4.784-6.7432-9.3451,0.0991-2.367-1.9333-2.188-2.0017-4.7385-0.16475-6.1401,6.7583-7.0974,10.326-12.106-2.9392,3.9341-10.043-0.78024-14.379,6.2032-3.9024,1.2256-5.3978-1.0541-6.2029-7.3505-3.5441,5.2936-7.9623,2.3494-6.4469,11.94-5.5808-3.4289-10.688-13.548,3.3142-17.301,2.2711-2.1278,3.0801-5.0779,12.141-3.3867,19.424-0.61383,2.514-5.2997,1.4211-4.5257-4.9955-1.2114-2.2637-5.2697,1.0602-9.5461-1.1476-5.2408-14.417,1.0737-9.6367-2.3364z" stroke-linecap="butt" stroke-width="3.3031714" fill="#dc281e"/>
    <path d="m180.63,277.28c-15.482,4.4736-20.85,11.837-27.315,18.887" stroke-linecap="round" stroke-width="2.64253712" fill="none"/>
    <path d="m178.14,283.4c-15.482,4.4736-17.841,12.338-22.134,20.057" stroke-linecap="round" stroke-width="2.64253712" fill="none"/>
    <path d="m168.12,294.26c-3.113,0.46211-6.8094,7.8254-8.0934,14.039" stroke-linecap="round" stroke-width="2.64253712" fill="none"/>
    <path d="m166.64,302.76c-1.9551,1.8584-1.0995,3.3825-1.1393,4.5723" stroke-linecap="round" stroke-width="2.64253712" fill="none"/>
    <path d="m170.82,307.44c-1.1194,0.85553-1.0995,3.3825-0.30357,4.5723" stroke-linecap="round" stroke-width="2.64253712" fill="none"/>
    <path d="m202.07,282.53c-1.9986-3.2756-10.486-2.5549-10.499-2.4478" stroke-linecap="round" stroke-width="2" fill="none"/>
    <path d="m189.37,270.33c-1.9551,1.8584-0.59805,5.5554-0.63786,6.7452" stroke-linecap="round" stroke-width="2" fill="none"/>
    <path d="m170.34,343.82c-0.96028-0.19379,3.8934-5.9923,6.0025-6.1656" stroke-linecap="round" stroke-width="2.64253712" fill="none"/>
    <path d="m164.89,344.06c-0.96028-0.19379,3.2248-5.658,5.3339-5.8313" stroke-linecap="round" stroke-width="2.64253712" fill="none"/>
    <path d="m160.71,343.9s1.0519-2.6494,2.6596-3.1569" stroke-linecap="round" stroke-width="2.64253712" fill="none"/>
    <path d="m156.81,344.56s0.2162-2.4822,1.8238-2.9898" stroke-linecap="round" stroke-width="2.64253712" fill="none"/>
    <path d="m152.63,344.9s0.2162-2.3151,1.8238-2.8226" stroke-linecap="round" stroke-width="2.64253712" fill="none"/>
   </g>
   <path stroke-linejoin="round" d="m209.77,608.2c-4.2335-24.215,0.92312-45.118,9.8298-48.694-2.0876,10.703,10.051,10.141,5.1932,18.91,12.786-4.1148,10.962-21.511,11.869-14.655,7.7567,11.577-11.434,25.854-16.442,28.602,3.8447,3.2137,9.7713-2.2616,16.08-2.5424-2.703,15.142-16.931,14.581-16.08,19.326,7.4064,10.93,15.904,18.299,24.168,23.638,6.1174,7.4038,15.695,16.829,15.857,24.834,0.92373,12.753-7.4291,31.157-17.327,36.389-3.8881,11.875-8.0889,19.219-12.411,24.82-8.6264,8.6629-15.15,6.8855-20.739,0.47275-0.17099,7.9918,0.52612,15.146,4.2458,19.383,7.5708,6.0204,10.76-5.9294,16.003-9.4552,3.266,0.42374,6.5319,0.12142,9.798,6.6186-0.29928,9.3863-2.395,18.832-1.9596,28.838-1.0758,7.7155-0.38614,14.579,1.1431,21.038,0.0544,10.952-10.025,10.663,1.1546,20.808,9.8575,2.2726,5.3553,13.184,0.0569,12.586,0.63943-2.0797-4.7526-11.878-8.3298-8.6811,2.3571,2.5389,1.8445,18.33-3.866,15.269,0,0-4.9645-5.5303-6.793,4.0183-3.0146-3.7361-3.162-7.7206,1.8509-11.785,3.1399-9.7349,1.9359-11.31-5.6793-5.3661,0.0502,6.3376-3.1609,8.6537-5.7256,6.0074-3.223-2.9066-4.5147-3.8717-7.3886,4.3933,0.50916-7.3172-1.6908-8.5428,4.0201-9.2352-3.131-7.2395,8.2865-7.0872,9.9611-9.1041-1.1027,0.98442-3.4755-5.725-4.6002-6.1919-1.1745,5.4408-9.492,8.7152-7.3207-1.3722-2.317,3.194-7.6852,4.9453-8.6422,8.746-0.37106-9.1147,0.0192-14.08,6.4681-12.781,2.091-8.319,11.154-0.11709,12.625-4.9472,5.2536-7.8691,3.0087-14.788,3.5926-24.347-7.5224,10.23-13.304,11.326-17.799,5.6731-9.3179-5.848-11.46-27.278-16.003-43.494,0.0714-10.539-9.2219-19.436-16.33-23.165-6.9677-1.5724-13.935-3.7091-20.902-13.946-2.5702-2.9153-0.73967-5.8307-0.9798-8.746-1.8338,19.148-10.873,12.633-18.453,13.474-10.118-2.486-16.879,1.6221-20.902,11.11-5.4629-1.5184,2.5431,4.1195-3.2212,8.3544,0.95044,5.9238-6.2161,9.2677-6.2161,9.2677s1.4691-8.246-0.71715-11.479c-1.2618-1.8657-7.1465,10.28-10.149,4.4598-3.9093,4.913-8.1707-0.24993-6.8416,8.6244-5.0914-4.6751-1.0572-8.0487,1.2211-11.812-2.8263-8.0919,6.7586-4.6296,8.3225-9.7797-0.93042-3.2989-3.9572-5.7251-7.2194-2.6002-3.817,2.9013-3.3918,3.4261-6.3795,0.58748-2.6278,1.0118-8.2228,5.1303-8.7097,9.8297-2.9762-7.4392-0.23698-12.426,4.2511-14.909,0.34814-7.8457,8.4163-7.6244,14.104-4.9639-3.2954-2.465-8.7694-7.4005-5.2487-11.704-3.8034-1.3419-10.26-3.3025-12.323-0.2364,2.8959-5.6568,10.86-9.8982,16.293-2.6981,4.5969-1.1049,6.5839,3.2407,8.4951,6.2881l-1.5015,4.5686,35.599-23.874,5.7154-7.0914c0.23499-7.1864,2.8149-14.457,9.4713-21.038,3.8103-7.4448,12.356-1.5328,15.84-5.6731-0.15331-2.0812-14.715-4.0498-8.4618-8.9824,6.701,1.4469,14.387,3.3581,15.484-2.1274v-10.873c-0.77959-7.409-6.3719-8.6717-8.328-9.9279-3.8344-0.77425-11.656,5.1266-11.525-8.2733-0.62559-2.9149,3.0385-3.0521,4.5038-3.5457-7.3145,0.52813-1.3812-7.6791,4.7356-4.7276,1.6034-0.71583,2.5266-3.4012,3.266-6.6186,6.6952-0.43416,15.676-3.6139,23.025,8.9824,4.4567-6.7269,10.191-4.8267,10.778-1.4183,1.0756,6.9585,2.8522,18.075-4.7356,22.692,3.4814-1.7653,3.4409,9.9287,9.9611,16.547-5.6329,5.2522-6.9656-0.54716-9.3082-5.4367,1.1642,10.245,0.099,20.666,6.5319,30.493-5.6847,5.6043-7.1342-6.1616-10.503-10.058-0.57518,10.157-1.4398,20.411,3.4807,28.732-7.9874,2.3446-6.9912-7.2306-10.288-11.11l-3.5925,10.401c2.3385-9.224,5.0539-8.4656,9.1687,6.6128l10.809,15.763c6.1039,5.436,10.749,13.512,15.131,22.064,13.888,10.26,18.908-3.8181,23.025-11.583-3.2896-10.639-14.221-12.16-17.095-22.929-3.5147-13.385,0.0727-21.726,4.3576-28.838,5.8996-11.27,16.395-19.381,27.025-26.915,7.9522-9.2758,12.557-17.438,1.1025-17.35-6.3245-0.98153-7.2994-12.33-7.2994-12.33s8.6745,5.806,11.023,1.5822c-12.432-12.816-7.6717-20.968-6.2127-21.575l6.5771,11.829c-3.0416-15-0.80595-21.356,4.2663-23.171-0.35756,5.3404-3.5648,12.129,3.2,16.069,6.0819,5.7001,14.507,12.318,11.646,26.431-3.5594,17.042-11.49,21.192-18.726,27.589-9.655,6.6065-20.685,12.927-26.982,21.964-4.1174,8.147-5.0756,15.608-0.49892,21.867l12.186,12.71c4.8971-4.9227,11.142-7.8938,12.817-17.482,2.6645-21.078-11.949-23.63-19.836-33.392-6.8411-5.995-14.641-7.3532-20.739-24.229z" stroke="#000" stroke-linecap="butt" stroke-miterlimit="4" stroke-dasharray="none" stroke-width="2.49348521" fill="#dc281e"/>
   <path stroke-linejoin="round" d="m132.28,598.51c-3.4717-2.2695-6.741,1.1711-3.4978,8.5096,4.3646,6.7284,25.301,6.7002,36.408,13.237l1.3064-4.0184-20.412-7.5641c-6.7393-2.4909-14.038-10.164-13.804-10.164z" stroke="#000" stroke-linecap="butt" stroke-miterlimit="4" stroke-dasharray="none" stroke-width="2.49348521" fill="#dc281e"/>
   <path stroke-linejoin="round" d="m149.79,597.13c0.73193,2.5214,1.723,5.5156,3.8651,8.0369,1.2663-2.4496-0.11889-6.0674,2.9754-8.3999z" stroke="#000" stroke-linecap="butt" stroke-miterlimit="4" stroke-dasharray="none" stroke-width="1.66232347" fill="#f4f0e8"/>
   <path stroke-linejoin="round" d="m158.11,596.38c-0.0647,1.9584,0.4547,5.6532,1.9001,8.1516,1.5363-0.87601,3.3942-2.5492,3.3976-5.2003-1.2736-2.9531-3.4556-2.2723-5.2977-2.9513z" stroke="#000" stroke-linecap="butt" stroke-miterlimit="4" stroke-dasharray="none" stroke-width="1.66232347" fill="#f4f0e8"/>
   <path stroke-linejoin="round" d="m161.43,662.56c3.4275-1.9776,6.8903-3.8017,9.4713-9.4552,0.8882,6.1268-0.87038,12.764,6.042,17.728" stroke="#000" stroke-linecap="round" stroke-miterlimit="4" stroke-dasharray="none" stroke-width="2.5" fill="none"/>
   <path stroke-linejoin="round" d="m170.74,603.94c0.97117,2.2104,1.0088,4.8712,4.409,5.9095" stroke="#000" stroke-linecap="round" stroke-miterlimit="4" stroke-dasharray="none" stroke-width="2" fill="none"/>
   <path stroke-linejoin="round" d="m187.56,581.96-2.776,8.0369c1.4754,1.935-0.16043,5.6714-0.65319,8.746,1.3608-1.267-1.4643-1.0804,2.9393-6.1459-0.83797-2.9659-0.84661-6.4121,0.4899-10.637z" stroke="#000" stroke-linecap="butt" stroke-miterlimit="4" stroke-dasharray="none" stroke-width="1.66232347" fill="#000"/>
   <path stroke-linejoin="round" d="m162.41,583.85c4.9537,2.1632,1.7349-1.6056,1.9686-3.6555,2.0661-2.2882,4.6992,0.1611,4.513,1.7849l-3.3174,2.1567c1.2222,0.44086,5.1581,0.48606,5.2588,2.5505" stroke="#000" stroke-linecap="round" stroke-miterlimit="4" stroke-dasharray="none" stroke-width="2" fill="#f4f0e8"/>
   <path stroke-linejoin="round" d="m230.2,738.01c1.1126,4.8539,2.1426,7.6072,5.8788,5.8689" stroke="#000" stroke-linecap="round" stroke-miterlimit="4" stroke-dasharray="none" stroke-width="2" fill="none"/>
   <path stroke-linejoin="round" d="m171.2,611.46c1.103,2.449,2.9054,3.7902,4.8709,1.0623" stroke="#000" stroke-linecap="round" stroke-miterlimit="4" stroke-dasharray="none" stroke-width="1.66232347" fill="none"/>
   <path stroke-linejoin="round" d="m169.81,621.32c0.97117,2.2104,0.085,3.7012,3.4853,4.7395" stroke="#000" stroke-linecap="round" stroke-miterlimit="4" stroke-dasharray="none" stroke-width="2" fill="none"/>
   <path stroke-linejoin="round" d="m167.27,624.33c0.97117,2.2104-0.26142,3.8683,3.1389,4.9066" stroke="#000" stroke-linecap="round" stroke-miterlimit="4" stroke-dasharray="none" stroke-width="2" fill="none"/>
   <path stroke-linejoin="round" d="m171.08,611.79c0.97116,2.2104-1.4161,6.2084,1.9842,7.2466" stroke="#000" stroke-linecap="round" stroke-miterlimit="4" stroke-dasharray="none" stroke-width="2" fill="none"/>
   <path stroke-linejoin="round" d="m118.43,644.72c0.97117,2.2104,1.4706,1.3612,3.3698,0.72798" stroke="#000" stroke-linecap="round" stroke-miterlimit="4" stroke-dasharray="none" stroke-width="2" fill="none"/>
   <path stroke-linejoin="round" d="m117.96,647.9c1.4961,3.4606,5.2174,0.89513,5.2174,0.89513" stroke="#000" stroke-linecap="round" stroke-miterlimit="4" stroke-dasharray="none" stroke-width="2" fill="none"/>
   <path stroke-linejoin="round" d="m141.64,674.97c-2.0435,3.0284-2.9534,6.0568-2.7501,9.0852" stroke="#000" stroke-linecap="round" stroke-miterlimit="4" stroke-dasharray="none" stroke-width="2" fill="none"/>
   <path stroke-linejoin="round" d="m136.69,677.09c-1.3506,1.8584-0.99594,6.4554-1.0234,7.6452" stroke="#000" stroke-linecap="round" stroke-miterlimit="4" stroke-dasharray="none" stroke-width="2" fill="none"/>
   <path stroke-linejoin="round" d="m133.2,680.99c-0.40495,1.357-0.98712,2.7139-0.20971,4.0709" stroke="#000" stroke-linecap="round" stroke-miterlimit="4" stroke-dasharray="none" stroke-width="2" fill="none"/>
   <path stroke-linejoin="round" d="m130.43,681.83c-1.3506,1.8584-0.52863,3.5497-0.55613,4.7395" stroke="#000" stroke-linecap="round" stroke-miterlimit="4" stroke-dasharray="none" stroke-width="2" fill="none"/>
   <path stroke-linejoin="round" d="m127.06,681.18c-0.54235,0.68838-0.88047,8.3751,0.14757,7.1438" stroke="#000" stroke-linecap="round" stroke-miterlimit="4" stroke-dasharray="none" stroke-width="2" fill="none"/>
   <path stroke-linejoin="round" d="m123.94,684.6c-0.77332,2.8613-0.0613,2.2936-0.20428,4.4863" stroke="#000" stroke-linecap="round" stroke-miterlimit="4" stroke-dasharray="none" stroke-width="2" fill="none"/>
   <path stroke-linejoin="round" d="m117.61,641.38c0.89235,0.76285,1.7847,1.0087,2.677-0.44205" stroke="#000" stroke-linecap="round" stroke-miterlimit="4" stroke-dasharray="none" stroke-width="2" fill="none"/>
   <path stroke-linejoin="round" d="m214.72,718.1c-1.3506,1.8584-3.8772-3.9719-3.9047-2.7821" stroke="#000" stroke-linecap="round" stroke-miterlimit="4" stroke-dasharray="none" stroke-width="2" fill="none"/>
   <path stroke-linejoin="round" d="m107.64,610.31c-0.40627,1.8584,6.3053,9.6549,5.0734,10.845" stroke="#000" stroke-linecap="round" stroke-miterlimit="4" stroke-dasharray="none" stroke-width="2" fill="none"/>
   <path stroke-linejoin="round" d="m155.99,620.52c-0.0647-1.9584,1.0429-2.2005,2.4883-4.6989,1.5363,0.87601,2.4378,3.1892,1.8639,5.6731z" stroke="#000" stroke-linecap="butt" stroke-miterlimit="4" stroke-dasharray="none" stroke-width="1.66232347" fill="#f4f0e8"/>
   <path stroke-linejoin="round" d="m231.31,745.77c0.88171,3.3496,2.9509,3.2614,4.1467,2.1917" stroke="#000" stroke-linecap="round" stroke-miterlimit="4" stroke-dasharray="none" stroke-width="2" fill="none"/>
   <path stroke-linejoin="round" d="m231.6,751.72c0.76627,2.3467,2.2581,2.0914,3.4539,1.0217" stroke="#000" stroke-linecap="round" stroke-miterlimit="4" stroke-dasharray="none" stroke-width="2" fill="none"/>
   <path stroke-linejoin="round" d="m231.72,757.23c0.0734,0.67526,1.9117,1.9242,2.2992,1.0217" stroke="#000" stroke-linecap="round" stroke-miterlimit="4" stroke-dasharray="none" stroke-width="2" fill="none"/>
   <path stroke-linejoin="round" d="m231.72,762c0.0734,0.67526,1.9117,1.9242,2.2992,1.0217" stroke="#000" stroke-linecap="round" stroke-miterlimit="4" stroke-dasharray="none" stroke-width="2" fill="none"/>
   <path stroke-linejoin="round" d="m232.18,766.01c0.0734,0.67526,1.3343,1.7571,1.7218,0.85455" stroke="#000" stroke-linecap="round" stroke-miterlimit="4" stroke-dasharray="none" stroke-width="2" fill="none"/>
   <path stroke-linejoin="round" d="m231.83,769.52c0.0734,0.67526,1.2189,1.7571,1.6064,0.85455" stroke="#000" stroke-linecap="round" stroke-miterlimit="4" stroke-dasharray="none" stroke-width="2" fill="none"/>
   <path stroke-linejoin="round" d="m233.57,774.95c-0.99204,0.63991-1.7122,0.49266-2.0887-0.64976" stroke="#000" stroke-linecap="round" stroke-miterlimit="4" stroke-dasharray="none" stroke-width="2" fill="none"/>
   <path d="m231.25,624.28,13.048,10.279-5.4848,3.7608c-3.7275-2.7108-6.8925-6.2359-10.335-9.3601z" fill="#dc281e"/>
   <path stroke-linejoin="round" d="m60.75,584.8c1.4957-6.015,7.283-15.563,13.237-8.0369,1.2362,1.2352,0.62801,5.42-2.3638,6.1459-2.7578-1.591-8.1157,0.58576-10.873,1.891z" stroke="#000" stroke-linecap="round" stroke-miterlimit="4" stroke-dasharray="none" stroke-width="2.5" fill="#ffd200"/>
   <path stroke-linejoin="round" d="m90.429,559.76c6.4815,1.6057,13.461,11.29,6.5758,15.108-1.9082-0.37658-3.9894-0.50212-4.0363-3.5804,2.1609-2.3381-1.8757-8.5496-2.5394-11.528z" stroke="#000" stroke-linecap="round" stroke-miterlimit="4" stroke-dasharray="none" stroke-width="2.5" fill="#ffd200"/>
   <path stroke-linejoin="round" d="m65.34,619.47c-4.553-8.4484,0.15119-22.675,5.4367-16.783,1.4726,0.99877,4.6465,7.3111,1.6547,8.0369-2.7578-1.591-5.2791,6.0225-7.0914,8.746z" stroke="#000" stroke-linecap="round" stroke-miterlimit="4" stroke-dasharray="none" stroke-width="2.5" fill="#ffd200"/>
   <path stroke-linejoin="round" d="m82.152,619.76c4.0599,4.6834,13.547,10.571,15.442,1.163,0.54199-1.6614-1.8972-5.1158-4.893-4.4066-1.7369,2.6682-7.4994,3.1569-10.549,3.2436z" stroke="#000" stroke-linecap="round" stroke-miterlimit="4" stroke-dasharray="none" stroke-width="2.5" fill="#ffd200"/>
   <path stroke-linejoin="round" d="m68.217,679.25c3.537-6.0992,14.074-12.306,16.527-3.0275,0.64012,1.6261-1.5887,5.2199-4.6215,4.6906-1.893-2.5599-7.6744-3.1767-11.906-1.6631z" stroke="#000" stroke-linecap="round" stroke-miterlimit="4" stroke-dasharray="none" stroke-width="2.5" fill="#ffd200"/>
   <path stroke-linejoin="round" d="m68.284,712.19c-2.2104-7.1955-1.107-19.052,7.6826-15.199,1.6712,0.51073,3.0976,4.4918,0.7961,6.5365-3.1818-0.11107-5.7102,7.398-8.4787,8.6627z" stroke="#000" stroke-linecap="round" stroke-miterlimit="4" stroke-dasharray="none" stroke-width="2.5" fill="#ffd200"/>
   <path stroke-linejoin="round" d="m80.064,726.47c-1.881-5.9059-1.9611-17.071,7.0559-13.785,1.7003,0.40334,3.3772,4.2855,1.2105,6.4726-3.1824,0.0917-6.6029,4.755-8.2664,7.3126z" stroke="#000" stroke-linecap="round" stroke-miterlimit="4" stroke-dasharray="none" stroke-width="2.5" fill="#ffd200"/>
   <path stroke-linejoin="round" d="m97.573,725.96c6.079-1.2094,15.891-6.5384,8.6542-12.842-1.1753-1.2933-5.3843-0.88374-6.2508,2.0704,1.4587,2.83-0.96909,8.0789-2.4034,10.772z" stroke="#000" stroke-linecap="round" stroke-miterlimit="4" stroke-dasharray="none" stroke-width="2.5" fill="#ffd200"/>
   <path stroke-linejoin="round" d="m101.43,753.15c-2.055-5.8476-2.4655-17.005,6.6448-13.988,1.7115,0.35283,3.5026,4.1837,1.4016,6.4339-3.1784,0.18582-6.4592,4.9483-8.0464,7.5541z" stroke="#000" stroke-linecap="round" stroke-miterlimit="4" stroke-dasharray="none" stroke-width="2.5" fill="#ffd200"/>
   <path stroke-linejoin="round" d="m115.24,723.77c5.5201-2.8188,16.523-4.7182,14.751,4.7139-0.1207,1.7434-3.6775,4.0308-6.1886,2.2496-0.60933-3.1249-5.7679-5.7392-8.5626-6.9635z" stroke="#000" stroke-linecap="round" stroke-miterlimit="4" stroke-dasharray="none" stroke-width="2.5" fill="#ffd200"/>
   <path stroke-linejoin="round" d="m108.08,774.73c-1.7407-5.9487-1.5565-17.113,7.3802-13.614,1.6903,0.44347,3.2748,4.3642,1.057,6.4994-3.1837,0.0163-6.7136,4.5974-8.4372,7.1149z" stroke="#000" stroke-linecap="round" stroke-miterlimit="4" stroke-dasharray="none" stroke-width="2.5" fill="#ffd200"/>
   <path stroke-linejoin="round" d="m121.65,772.79c5.8091,1.1908,14.631-0.74456,13.026-8.3754-0.56834-1.6525-4.5964-2.9401-6.5601-0.56912,0.22126,3.1761-4.0836,7.0379-6.4656,8.9445z" stroke="#000" stroke-linecap="round" stroke-miterlimit="4" stroke-dasharray="none" stroke-width="2.5" fill="#ffd200"/>
   <path stroke-linejoin="round" d="m197.01,806.59c-1.2434-6.0722-0.13783-17.183,8.4794-12.958,1.6479,0.58156,2.9032,4.6198,0.51657,6.5645-3.1742-0.24668-7.0703,4.0272-8.996,6.3938z" stroke="#000" stroke-linecap="round" stroke-miterlimit="4" stroke-dasharray="none" stroke-width="2.5" fill="#ffd200"/>
   <path stroke-linejoin="round" d="m205.31,826.06c-1.7952-5.9325-1.7135-17.098,7.2549-13.681,1.6943,0.42793,3.3148,4.334,1.1166,6.4894-3.1834,0.0455-6.6711,4.6588-8.3715,7.1921z" stroke="#000" stroke-linecap="round" stroke-miterlimit="4" stroke-dasharray="none" stroke-width="2.5" fill="#ffd200"/>
   <path stroke-linejoin="round" d="m220.38,831.27c-1.402-6.0375-0.58762-17.173,8.1373-13.176,1.6626,0.53821,3.0232,4.5422,0.68825,6.5487-3.1796-0.1635-6.9625,4.2109-8.8255,6.6271z" stroke="#000" stroke-linecap="round" stroke-miterlimit="4" stroke-dasharray="none" stroke-width="2.5" fill="#ffd200"/>
   <path stroke-linejoin="round" d="m241.19,825.84c4.5167-4.2446,10.019-13.96,0.54224-15.477-1.6818-0.47487-5.0356,2.101-4.2066,5.0659,2.7358,1.6284,3.4553,7.3667,3.6644,10.411z" stroke="#000" stroke-linecap="round" stroke-miterlimit="4" stroke-dasharray="none" stroke-width="2.5" fill="#ffd200"/>
   <g transform="translate(8.0229825,-4.0114913)">
    <path fill="#ffd200" d="m240.01,465.7c2.415,1.679,1.4332,4.3669-6.797,6.5972,22.249,4.3615,19.236,8.3887,2.194,5.0616,21.355,11.759,13.636,12.747,2.6009,10.945,16.168,10.238,14.556,12.697,2.2384,10.473,15.551,8.8218,6.87,8.324-0.0127,8.5176,9.8294,6.6475,9.7439,9.5178,0.85454,9.0343,1.4993,4.479,5.7012,10.502,1.4727,11.708-5.716-4.2635-8.4229,0.57313-11.739,0.50429-1.1617-3.2326,0.17711-4.015-3.2014-4.45l-0.61898,0.40547c-1.4317,4.3458-5.6306,5.1002-7.768,4.677-2.8807-0.57038-3.7536-3.28-5.4683-2.2193-3.823-5.5165,3.592-5.3701,6.5474-8.3448-4.4764,1.5868-8.8953,1.6236-11.117,0.43012-0.83452-7.077,0.45859-5.6675-0.87794-8.4447,5.3182-4.3626,10.636-0.79783,15.955-0.36967-0.51605-18.608-12.762-21.966-21.519-29.861-22.828-13.67-17.604-25.7-24.365-37.726-11.239-21.98-19.766-24.753-29.965-34.377,8.1205-3.8014,15.84-7.6576,24.663-16.18,16.842,17.991,36.048,38.851,52.89,50.896,10.027,7.8528,25.64-1.5654,17.492-16.074l-29.311-37.821c-8.5536-12.38-7.1578-22.144,0.94551-36.402l13.237-17.965c11.282-21.087-2.548-25.119-16.074-13.71-0.52902-5.8506-4.1993-15.646,17.965-14.656,0.27154-2.7963-2.9162-4.9008-5.6731-7.0914,12.354-5.0733,20.884,6.3554,23.165,21.747,5.9547-3.5737,2.6004-11.12,1.4183-16.074,7.2464,6.4164,3.4126,20.224-3.3093,29.311l12.292-3.7821c-3.0827,14.262-14.644,15.053-21.274,19.856,5.7879,1.8326,12.563-2.2588,18.91-3.7821-6.8994,12.842-18.794,16.828-34.511,14.656-8.0627,12.707-1.8598,24.245,4.7276,32.148,2.7488-9.3556,8.2063-15.461,17.256-17.256,13.041-2.0137,15.235-9.0192,17.256-17.256,4.2722,8.261,3.5938,15.532-4.7276,21.274-30.149,14.548-17.235,21.121-15.601,29.784,7.4473-6.6362,17.869-8.8113,20.801-22.22,6.5056,15.266-3.1796,21.686-14.183,26.947,2.3894,9.5416,9.2143,26.216,4.7276,31.202-4.6663,9.5734-11.782,9.5437-19.383,9.9279-14.315-5.967-21.494-14.788-29.784-23.165,3.5761,11.746,5.7654,26.868,15.811,32.897,6.697,2.1406,13.905,2.4945,21.861,0.22634z"/>
    <path fill="#ffd200" d="m107.31,499.78c6.0169,0.71328,4.6316,4.3874,6.6858,6.6858,4.7915,1.8807,9.583-3.2769,14.375-5.3486,3.4257-3.5277,7.1306-11.983,6.0172-29.752-0.86669-10.772,0.475-21.634,6.0172-29.083,2.4248-5.3486,5.7369-9.8735,19.291-13.885,3.7266-4.235,11.266,8.9375,12.968,18.064-6.0912,4.5533-13.284,21.521-13.204,29.418-0.55862,5.6272,16.326,14.597,10.363,30.922-4.0042-0.78242-5.0216-8.6891-9.0259-12.034-0.0282,6.1347,1.2755,15.932-0.33429,17.717-4.267,1.0928-4.9036-7.7984-7.3544-11.7-0.12946,5.406,0.64742,13.531-0.66858,15.377-2.6162,0.48806-2.4733-3.1034-5.3487-9.0259-0.51885,4.311-0.13311,10.431-1.8386,12.369-0.88024,0.14378-1.7605-3.804-2.6407-6.5471-0.93429,2.7726-1.5458,7.4821-2.8751,7.8842-1.7383,0.5573-2.6807-2.8655-4.0115-4.3458-1.2015,2.5614-0.83445,5.9175-4.3458,6.5187-2.7746-0.90362-2.8749,3.013-4.9809,3.276-3.456-2.7818-0.83724-8.7709-6.0507-2.4403-0.71513,2.4947,0.83868,6.448-2.2589,7.3544l-5.9312-1.0029c-1.9377-2.8415,3.0513-8.5244,0.50143-10.029-1.5936,1.3205-2.6864,7.069-4.4623,8.2682-1.2146-1.7006-2.325-3.4636-5.7042-3.8654,0.49642-4.9729,9.459-5.0629,7.1579-9.25-3.3986,1.6956-8.6358,6.5902-12.034,5.5158,1.1693-2.5072,3.1726-5.8501,1.6715-8.3573,1.6986-3.3272,8.8176,1.5025,11.032-1.6715,0.0557-2.379-6.2401,0.65859-9.3602-5.3486,5.4314,2.3654,5.4296-2.5934,6.3515-5.683z"/>
    <path fill="#ffd200" d="m64.852,398.82c5.4253,0.2194,7.5942,5.3233,11.366,8.023,15.199-3.7626,26.893-13.132,40.115-20.057-1.9007-4.1872-5.8495-7.5552-3.6772-13.372,2.1704-5.2253,6.418-7.1863,11.7-7.5216l-4.0115-1.8386c1.1373-10.171,6.5206-5.481,10.029-7.3544-0.67482-8.5002,0.3364-5.5591,10.697-7.6887,0.44834-1.7129-2.7346-3.8797,7.6887-4.3458-1.9521-1.7321-5.3585-5.5017-2.0057-6.3515,5.7944,0.00001,16.68,1.7871,17.383,0.00001,0.0877-4.635,2.2116-9.9488-1.3372-13.372-7.0201-5.2674-14.04-3.8055-21.06-5.6829-2.8217-0.33606-4.2931-12.257-1.17-13.372,3.438-1.3713,4.487-4.2062,10.697-5.1815,3.801-0.50763,7.4982-1.5979,10.864-3.8444,4.9586,0.36502,9.9173-1.0118,14.876,1.3372,2.8223,1.7724,14.725,2.7095,15.956,1.3912,5.3923-3.9875,8.458,0.53589,5.4383,6.1304,1.1583,7.416,3.1503,7.6457,1.0029,16.715-1.8829,4.5806-5.7827,3.7827-8.8587,5.1815,2.0142,4.4402,6.1374,4.6627,6.0172,13.372l-7.3544-2.0058c4.2654,5.683,3.5144,11.366,5.0144,17.049l-6.0172-4.6801c0.4082,8.2572,0.25953,15.029-0.66858,19.723l-6.6858-7.6887c1.4349,8.2726,2.0778,16.041-1.3372,21.227l-5.3487-9.193c-0.56778,8.6716-1.763,17.984-5.8501,20.057-0.85542-4.0852,0.7978-10.845-2.5072-13.706-1.1517,10.377-4.1048,19.625-11.032,21.562l-0.33429-15.21c-1.8386,5.7387-3.51,19.497-5.3486,18.72l-3.3429-16.046c-2.1299,5.611-1.6598,12.262-1.6715,18.72-4.7488,0.16942-7.287-2.4243-10.363-4.3458-0.49666,4.3235-1.2306,6.9864-2.1729,8.1901-3.4543,0.39785-6.9087-1.5912-10.363-3.3429l1.8386,6.1844c-5.047,1.7694-8.4785-1.3078-12.703-2.0058l2.5072,8.3573c-4.9781-0.80327-8.2133-1.3356-11.867-4.3458l3.0086,9.0259c-5.2514-0.21859-10.498-0.4446-12.703-5.0144l-3.9858,3.3043c0.16858,2.6822-0.28591,6.7713-2.8672,5.3872-2.3066-2.3203-3.7775-0.681-6.0841-0.0334-2.8823,1.0929-1.0047-4.6834-2.7746-5.8167-1.7055,0.97906-4.2208,7.3116-6.6858,4.8472-1.5242-3.931-0.89783-2.2763-4.3458-3.1758-1.569-3.2905,1.6296-4.7933,3.3429-6.853l-3.5101-2.5072c-3.7492,1.3433-8.6179,4.4144-11.533,1.17,2.1097-3.12,2.9552-5.0701,2.8415-8.1901,4.1902-2.029,11.055,0.84193,12.571-0.70643-0.02353-2.3747-8.9464-4.013-9.7291-6.4808,2.4753-0.37428,4.7608-1.3179,6.3515-4.3458z"/>
    <path fill="#ffd200" d="m79.06,308.9c3.0643,0.10718,4.2901,0.11083,7.3544-2.0057,2.3425-1.7369,2.3372,5.4382,2.5072,7.6887,2.7446,0.99079,2.8972-3.9558,6.1844-4.1786l3.6772,5.6829c2.1146,6.0537-6.1877,3.5376-5.1815,6.0172,8.549,11.62,18.188,24.278,29.36,33.274-5.7063,7.5401-9.6034,13.883-13.554,21.381-0.77373,1.4684,2.7053,5.5812,1.9134,7.1558-1.5542-3.9587-12.428-9.4187-11.034-18.854l-3.8444,7.6887c-1.6312-4.4805-3.6054-8.836-0.50144-15.043l-7.6887,4.6801c0.94726-3.6772-0.76935-7.3544,3.0086-11.032l-7.3544,2.34c0.18689-6.6614,6.2229-10.816,9.3601-16.213-3.12,2.0204-6.7415,4.6238-9.8616,3.6772-0.47712-3.2339-3.0018-3.6801-2.5072-6.6858,0.25912-2.8972-0.07544-3.6215,3.3429-5.3487-3.1467-2.7188-2.3686-5.5263-6.3515-4.5129-1.8943,1.1797-7.8001,0.97869-5.6829-1.5043,2.3806-1.9305,3.5768-4.1994,2.8415-7.0201-0.39001-3.2573,5.2372,0.73185,7.8558,1.8386-1.6101-3.0086-6.8698-9.6944-3.8443-9.0259z"/>
    <path fill="#dc281e" d="m120.68,317.76c3.5509-3.2303,6.4824,6.0527,14.89,10.547,6.2982,3.3671,15.013,4.1254,27.231,3.4928,2.2559,1.3929,0.35128,2.7858,0.54199,4.8878-12.591-0.85238-29.082-0.024-35.643-4.5535-8.4858-5.1775-8.5695-13.041-7.0201-14.375z"/>
    <path fill="#000" d="m155.95,300.04c2.7695-0.97042,3.6192,1.8989,5.1815,3.3429,1.8247-0.45953,3.2619-0.85091,4.8472,0.83572,1.2639,1.8461,5.5599,1.6287,3.6772,5.683-4.1247,2.5394-7.1315-3.4204-11.867-5.3487-1.2722-1.0976-0.59029-2.6274-1.8386-4.5129z"/>
    <path stroke-linejoin="round" d="m148.93,345c12.261,2.995,19.409-0.0808,24.57-5.5158,3.7329-2.643,4.1229-11.531,6.1844-18.553,0.5078-8.0368,0.29635-9.4064,4.6801-12.536,3.4996-2.552,10.983-3.5291,7.3544,4.5129-2.2692,4.5376-7.6511,7.8044-11.867,8.1901" stroke="#000" stroke-linecap="round" stroke-miterlimit="4" stroke-dasharray="none" stroke-width="3" fill="none"/>
    <path d="m77.614,298.06c7.1259,0.96303,7.757,4.9203,9.0922,9.8923-1.7058,1.4927-3.1466,3.5154-6.1745,2.3638,0.92428-4.849-1.4085-8.2183-2.9177-12.256z" stroke="#000" fill="#dc281e"/>
    <path d="m101.68,302.26c3.7267,6.1496-0.46371,11.077-3.4937,15.239-2.2329-0.38968-3.5639-0.9656-4.0971-4.7542,4.3536-2.3266,5.3969-6.7745,7.5908-10.485z" stroke="#000" fill="#dc281e"/>
    <path d="m62.166,318.63c5.0987-5.0705,10.137-3.196,14.896-1.2318,0.1473,2.2619-0.16155,4.436-2.9174,6.139-3.2867-3.683-7.8552-3.6492-11.978-4.9072z" stroke="#000" fill="#dc281e"/>
    <path d="m70.716,337c4.7056,5.4373,9.8697,3.9445,14.762,2.3412,0.31588-2.2446,0.17033-4.4357-2.4506-6.3398-3.5527,3.4271-8.1059,3.0521-12.311,3.9986z" stroke="#000" fill="#dc281e"/>
    <path d="m51.053,399.16c5.6979-4.3863,10.459-1.8908,14.932,0.65837-0.1394,2.2624-0.72022,4.3801-3.669,5.7216-2.7955-4.0684-7.3317-4.6115-11.263-6.38z" stroke="#000" fill="#dc281e"/>
    <path d="m43.042,417.16c3.2351-6.4219,8.6074-6.2356,13.743-5.8758,0.85453,2.0994,1.2485,4.2597-0.8279,6.7463-4.2821-2.4556-8.6058-0.97986-12.915-0.87055z" stroke="#000" fill="#dc281e"/>
    <path d="m61.348,440.15c-2.6757-6.6743,1.018-10.58,4.6852-14.193,2.1397,0.74803,4.0204,1.8816,4.5115,5.0838-4.6743,1.5868-6.4279,5.8054-9.1966,9.1093z" stroke="#000" fill="#dc281e"/>
    <path d="m75.211,440.24c7.1259-0.96303,8.7025-6.1022,10.038-11.074-1.7058-1.4927-3.6193-2.5699-6.6473-1.4183,0.92428,4.849-1.8813,8.4546-3.3904,12.492z" stroke="#000" fill="#dc281e"/>
    <path d="m94.327,499.83c6.1781-3.6793,10.61-0.63666,14.748,2.4252,0.0122,4.3252-1.0421,5.2274-4.3219,5.2459-2.2931-4.3713-6.7328-5.4488-10.426-7.6712z" stroke="#000" fill="#dc281e"/>
    <path d="m87.036,521.16c1.8494-6.9488,7.1458-7.8682,12.246-8.5691,1.2669,1.8796,2.0955,3.9132,0.57314,6.7727-4.6947-1.5253-8.6239,0.80573-12.819,1.7964z" stroke="#000" fill="#dc281e"/>
    <path d="m99.623,536.52c-2.5253-6.7327,1.2552-10.554,5.0025-14.084,2.1224,0.79587,3.9771,1.9714,4.3962,5.1838-4.7087,1.4814-6.5566,5.6597-9.3988,8.9006z" stroke="#000" fill="#dc281e"/>
    <path d="m109.14,538.86c7.1259-0.96303,8.7025-6.1022,10.038-11.074-1.7058-1.4927-3.6193-2.5699-6.6473-1.4183,0.92428,4.849-1.8813,8.4546-3.3904,12.492z" stroke="#000" fill="#dc281e"/>
    <path d="m198.37,517.39c3.553-6.2516,8.9093-5.7962,14.02-5.1792,0.74818,2.1397,1.0334,4.317-1.1651,6.6963-4.1536-2.6673-8.5459-1.4102-12.855-1.5171z" stroke="#000" fill="#dc281e"/>
    <path d="m209.04,535.39c-1.6803-6.9916,2.5404-10.321,6.6924-13.364,2.0087,1.0502,3.7053,2.4444,3.7271,5.6839-4.8549,0.89265-7.2013,4.8127-10.42,7.6804z" stroke="#000" fill="#dc281e"/>
    <path d="m223.68,536.24c-3.4098-6.3308-1.361-9.209,1.8763-13.212,2.2103-1.4341,5.3885-2.4636,6.2368,3.1255-4.466,2.1027-5.7337,6.4919-8.1131,10.086z" stroke="#000" fill="#dc281e"/>
    <path d="m230.66,536.86c7.1259-0.96303,8.7025-6.1022,10.038-11.074-1.7058-1.4927-3.6193-2.5699-6.6473-1.4183,0.92428,4.849-1.8813,8.4546-3.3904,12.492z" stroke="#000" fill="#dc281e"/>
    <path fill="#ffd200" d="m160.5,421.7c5.6856,2.8153,10.253,9.3729,15.601,17.965l-2.6002,5.6731c-1.6974-10.561-9.1087-17.292-13.001-23.638z"/>
   </g>
  </g>
 </g>
</svg>
